<svg width="99" height="105" viewBox="0 0 99 105" fill="none" xmlns="http://www.w3.org/2000/svg">
<path d="M44.2591 35.3649C43.0218 36.0427 41.6607 36.2646 40.3025 36.4653C39.739 36.5484 39.4746 36.7748 39.3356 37.3182C39.1241 38.1454 38.8477 38.9575 38.5576 39.762C38.4035 40.1907 38.4564 40.544 38.7298 40.8866C40.5895 43.2172 42.9705 44.2558 45.9632 43.8542C46.6204 43.7667 46.8968 43.4482 47.063 42.8369C48.116 38.9545 49.1176 35.0555 50.5437 31.2818C52.3309 26.551 54.1967 21.8535 56.6169 17.4006C57.6804 15.4443 59.1791 13.9272 61.2745 13.0623C61.5298 12.9566 61.7911 12.86 62.0585 12.7921C63.4937 12.4238 64.1524 12.8434 64.4138 14.288C64.7053 15.9001 64.3262 17.4624 63.9047 18.978C61.8153 26.5103 58.747 33.5747 53.6921 39.6458C52.8733 40.6285 52.0182 41.593 50.9486 42.3282C50.6812 42.5123 50.5649 42.7916 50.4879 43.0844C49.3034 47.5932 48.261 52.1232 48.5103 56.8388C48.6312 59.1046 49.5754 59.7295 51.6572 58.8298C53.5969 57.9921 55.0246 56.4765 56.4643 54.9973C58.9253 52.4674 60.7926 49.5193 62.4831 46.4445C63.0647 45.3879 63.6463 44.3282 64.3624 43.3516C64.5497 43.0965 64.6132 42.8127 64.6555 42.5093C65.2522 38.2299 66.4608 34.1136 67.8658 30.038C68.7027 27.6077 69.5926 25.2136 70.8465 22.9645C71.4946 21.8037 72.6986 21.3841 73.7803 20.8361C74.1776 20.6354 74.4556 21.0475 74.4919 21.4807C74.5236 21.8656 74.3816 22.2249 74.2713 22.5826C73.386 25.4431 72.3315 28.2462 71.2438 31.0327C69.3297 35.937 68.2541 41.0406 67.3884 46.2075C67.1829 47.4302 67.1558 48.5955 67.5682 49.7699C68.171 51.4877 69.4717 52.007 71.0957 51.1541C71.9357 50.7133 72.605 50.0733 73.176 49.3246C73.4328 48.9895 73.6912 48.6559 73.9465 48.3253C74.1429 48.4521 74.0749 48.594 74.0251 48.6801C73.0491 50.3677 71.7665 51.7081 69.8041 52.2077C67.961 52.6772 66.6225 52.0734 65.6224 50.3496C64.8866 49.0816 64.5497 47.7034 64.5452 46.2377C64.5437 45.643 64.6087 45.0437 64.4531 44.378C64.0346 44.5894 63.9515 44.9743 63.7959 45.2837C62.0298 48.8008 60.0704 52.1941 57.4282 55.1437C55.9144 56.8343 54.3508 58.4721 52.2766 59.5061C49.3654 60.9567 46.7322 59.8819 45.7457 56.8132C45.445 55.8773 45.2486 54.9127 45.2622 53.921C45.3015 51.0696 45.7034 48.2589 46.2563 45.4664C46.4361 44.5622 46.4436 44.5909 45.5568 44.6845C43.4176 44.9094 41.4854 44.2135 39.6242 43.2716C38.1346 42.5168 38.1739 42.5033 37.7448 44.0943C36.5589 48.4869 36.1646 52.9987 35.6736 57.4985C35.2884 61.0261 34.9183 64.5478 35.0421 68.1056C35.1162 70.2204 35.2582 72.3246 35.6766 74.4032C35.867 75.3481 36.216 76.2327 36.7206 77.0568C36.9819 77.4825 37.2221 77.6274 37.5061 77.078C40.8313 70.64 46.4633 66.8829 52.8295 64.036C56.7015 62.3047 60.6928 60.8978 64.8141 59.8276C71.4387 58.1068 77.3335 54.8916 82.6634 50.6318C86.0293 47.9404 88.936 44.8279 91.1794 41.1251C91.9665 39.8254 92.5859 38.4578 92.9485 36.9786C93.0165 36.6993 93.0165 36.3823 93.3443 36.1212C93.5286 36.7235 93.3715 37.2442 93.2083 37.7559C92.4681 40.07 91.0888 42.0187 89.6611 43.9448C86.4176 48.3178 82.2495 51.6417 77.7188 54.5686C72.9011 57.6811 67.6498 59.7385 62.1718 61.4141C53.9338 63.9334 46.6793 68.2309 40.6107 74.4092C39.529 75.5096 38.7147 76.8153 37.9941 78.1799C37.8068 78.5331 37.8627 78.7595 38.1135 79.0463C40.5654 81.8434 43.6835 82.3114 47.131 81.6442C47.5737 81.5581 47.7852 81.2079 48.0299 80.8894C50.5649 77.5927 53.2691 74.4439 56.4054 71.6967C61.3485 67.3675 66.84 63.8821 72.9388 61.4382C77.882 59.4563 83.0351 58.9627 88.2864 59.9952C94.0891 61.1363 97.1362 64.9915 98.1801 70.3593C100.044 79.946 93.5513 89.7048 84.1288 91.9962C80.8868 92.7842 77.6735 92.4038 74.4798 91.6762C70.2105 90.7026 66.3354 88.7629 62.5405 86.6738C59.5658 85.036 56.4991 83.6744 53.1906 82.8985C51.7433 82.5589 50.2688 82.3627 48.7747 82.4034C48.329 82.4155 47.9559 82.5106 47.6809 82.9303C45.4058 86.4006 42.9357 89.7395 40.7678 93.2823C39.2012 95.8439 37.9095 98.5353 36.7009 101.275C36.3459 102.078 35.941 102.866 35.4848 103.616C34.9983 104.418 34.3291 105.046 33.3003 104.997C32.2805 104.951 31.6656 104.306 31.2381 103.449C30.8514 102.674 30.5991 101.859 30.593 100.988C30.5402 94.1744 31.6853 87.6066 34.8488 81.5068C35.6464 79.9686 35.9168 78.8094 34.743 77.2033C32.5993 74.2703 31.8213 70.7563 31.6717 67.1622C31.3318 58.9491 32.1355 50.8356 34.036 42.8353C34.3381 41.5629 34.6509 40.2934 34.9696 39.0254C35.0391 38.7477 35.0875 38.4911 34.9303 38.2269C34.1161 36.8684 33.3682 35.46 32.2261 34.3339C31.22 33.3422 31.0387 33.5777 30.5356 34.6041C28.6291 38.4941 26.3237 42.1621 23.9896 45.803C21.2174 50.1292 18.1295 54.2289 14.6065 57.9815C13.0262 59.6661 11.236 61.085 8.99712 61.8277C7.2492 62.4073 5.53452 62.3469 3.84855 61.5786C0.929814 60.2487 -0.328625 57.0683 1.07484 54.1927C2.17919 51.9315 4.07516 50.659 6.61923 50.4431C6.83375 50.425 7.2205 50.2696 7.24467 50.6213C7.26582 50.9352 6.88512 50.7949 6.69326 50.81C2.98592 51.0968 1.17304 54.4206 1.27728 57.3022C1.3362 58.9264 3.50108 60.7876 5.34266 60.8737C7.12684 60.9567 8.68893 60.282 10.1951 59.4306C13.0504 57.817 15.2319 55.4471 17.3771 53.0349C20.6585 49.3427 23.1406 45.1116 25.6333 40.8821C26.999 38.5635 28.3919 36.2616 29.5491 33.8283C29.6216 33.6758 29.8029 33.5324 29.6805 33.3528C29.537 33.1414 29.3104 33.2471 29.1246 33.2954C27.9553 33.5928 26.8011 33.9717 25.6167 34.1936C20.0965 35.2245 16.1368 33.5279 13.0821 28.8062C7.32474 19.9078 11.2798 10.5173 16.8167 6.38284C22.4169 2.20308 28.7424 1.01662 35.5573 3.03178C38.3385 3.85445 40.8131 5.30809 43.3345 6.67115C43.9101 6.9821 44.5129 7.24173 45.0885 7.55269C45.5221 7.78666 45.8257 7.70816 46.1173 7.30966C47.4347 5.51338 49.1206 4.06276 50.6994 2.51403C51.7523 1.48154 53.0002 0.726804 54.3976 0.230184C56.135 -0.388705 57.123 0.243769 57.1517 2.08685C57.1804 3.96917 56.7876 5.7881 56.0171 7.50891C55.579 8.48706 54.8237 9.20406 53.8674 9.65389C52.1784 10.4479 50.4123 10.9203 48.5269 10.5596C48.0193 10.463 47.9377 10.7528 47.7927 11.0909C46.5811 13.9393 45.726 16.916 44.6489 19.8127C42.8088 24.7653 41.357 29.8432 40.0019 34.9483C39.7496 35.8963 39.7798 35.9204 40.7572 35.8585C41.9356 35.7846 43.0868 35.54 44.2591 35.3619V35.3649ZM79.8142 91.483C84.1621 91.483 87.537 90.372 90.3485 88.2421C96.5803 83.519 98.9567 75.2666 96.1799 67.9532C94.9759 64.7787 92.8019 62.5567 89.5629 61.485C87.2968 60.7348 84.931 60.4782 82.5562 60.5718C79.1041 60.7076 75.7669 61.4956 72.5914 62.8315C66.9654 65.1968 61.8153 68.3728 57.129 72.2793C54.236 74.69 51.6526 77.3965 49.6116 80.5845C49.4817 80.7868 49.2249 80.98 49.3488 81.2472C49.4454 81.4555 49.7083 81.374 49.9002 81.374C54.7391 81.4042 59.0507 83.0918 63.113 85.5658C65.2205 86.8489 67.3718 88.0534 69.659 88.9923C73.1292 90.4158 76.7232 91.326 79.8142 91.483ZM10.9203 19.9169C10.8916 19.9123 10.8629 19.9078 10.8327 19.9033C10.8191 19.9757 10.7949 20.0482 10.7919 20.1206C10.7858 20.2716 10.7858 20.4225 10.7934 20.5735C10.9852 24.2249 12.2799 27.4069 14.7515 30.1285C17.5781 33.2411 20.9878 34.3943 25.1061 33.4147C26.7165 33.0313 28.2484 32.3369 29.9404 32.2675C30.4571 32.2463 30.7441 31.6214 30.4918 31.1776C28.7031 28.0318 26.1862 25.8189 22.5303 25.1351C21.0996 24.868 20.5421 25.3133 20.3125 26.7609C20.2868 26.9284 20.3775 27.2545 20.0632 27.1805C19.8094 27.1216 19.9409 26.8424 19.9711 26.6552C20.1962 25.2589 21.3851 24.3261 22.8445 24.4498C24.177 24.5631 25.381 25.0793 26.4959 25.7903C28.2272 26.8952 29.5234 28.4273 30.6232 30.1315C30.9375 30.6191 31.1308 30.604 31.3726 30.0968C31.9134 28.9617 32.4391 27.819 33.0253 26.7065C34.9349 23.0762 36.8807 19.4685 39.5426 16.3047C41.2286 14.3001 42.8179 12.2185 44.0098 9.87276C44.2319 9.43501 44.9223 9.05764 44.7078 8.67272C44.5023 8.30441 43.8089 8.2078 43.333 7.98893C40.4777 6.67115 37.6466 5.29752 34.6206 4.38579C28.7786 2.62573 23.2388 3.39255 18.2549 6.82814C13.5973 10.0373 11.0759 14.5869 10.9807 20.3048C10.9641 20.2067 10.9399 20.0633 10.9173 19.9199L10.9203 19.9169ZM31.1248 98.9504C31.1535 99.5527 31.1747 100.155 31.2124 100.757C31.2653 101.584 31.578 102.314 32.0569 102.984C33.0691 104.401 34.1463 104.353 35.0044 102.818C35.2974 102.294 35.5361 101.734 35.7461 101.171C37.1466 97.4364 38.9051 93.8921 41.1651 90.5924C42.8556 88.1244 44.7199 85.7756 46.2548 83.202C46.35 83.042 46.5675 82.8804 46.4089 82.6691C46.288 82.5091 46.078 82.5967 45.9088 82.6148C42.8103 82.9514 39.9535 82.3144 37.4019 80.4834C37.0318 80.2177 36.8248 80.2962 36.6329 80.6615C36.364 81.1717 36.0936 81.6834 35.8035 82.1815C32.7896 87.3651 31.5992 93.0544 31.1263 98.9504H31.1248ZM51.1662 41.1749C51.4018 41.267 51.4955 41.1749 51.5801 41.0859C53.1709 39.3711 54.7511 37.6457 56.0096 35.6608C59.1141 30.764 61.3077 25.4552 63.0617 19.9546C63.4968 18.5885 63.8125 17.1877 63.9455 15.7552C64.0165 15.002 64.0542 14.2442 63.7309 13.5287C63.5557 13.1408 63.2656 13.017 62.82 13.0366C62.3834 13.0563 62.403 13.26 62.3516 13.5816C62.3123 13.8291 62.0812 14.0495 61.9226 14.2744C61.5736 14.7665 61.1763 15.2269 60.8711 15.7447C58.9434 19.0233 57.3269 22.4377 56.1214 26.0559C54.8116 29.9881 53.3416 33.8675 52.1089 37.8284C51.7629 38.9394 51.3611 40.0383 51.1647 41.1764L51.1662 41.1749ZM42.8602 14.2065C42.5958 14.1869 42.549 14.3665 42.4598 14.4706C38.1406 19.5908 34.9666 25.3993 32.208 31.4614C31.9678 31.9897 32.1128 32.3731 32.4089 32.7792C33.1477 33.7951 34.2263 34.337 35.311 34.8758C35.8897 35.1626 36.1616 35.0253 36.2704 34.3536C36.9804 29.9625 38.4715 25.7918 39.9898 21.6362C40.8932 19.1621 41.8857 16.7198 42.8617 14.2065H42.8602ZM49.9077 9.71879C53.2767 9.64181 55.7241 7.59797 56.3722 4.30428C56.4839 3.73822 56.5414 3.1616 56.6154 2.58951C56.697 1.9525 56.7619 1.29588 56.0972 0.91096C55.4068 0.510947 54.801 0.805297 54.2194 1.22644C51.7387 3.02726 50.1857 5.53149 48.9046 8.23346C48.2656 9.57992 48.4015 9.75351 49.9077 9.71879Z" fill="#E2C9AD"/>
</svg>
