<svg width="164" height="85" viewBox="0 0 164 85" fill="none" xmlns="http://www.w3.org/2000/svg">
<path d="M10.9629 35L28.5996 0.400391L46.2754 35L38.0039 36.7969L34.4785 29.4434H22.3594L19.2441 36.8848L10.9629 35ZM31.6367 22.6367L28.3555 15.4004L25.1621 22.6367H31.6367ZM58.8438 1.96289V27.2754H71.5195L69.4004 35H50.1621V2.80273L58.8438 1.96289ZM81.3633 9.52148L76.1191 5.47852L80.7188 0.722656L86.2852 4.67773L81.3633 9.52148ZM77.3594 11.2402L84.918 10.3223V34.8438L77.3594 35.4004V11.2402ZM122.77 35.7227V22.1191H112.613V35L104.01 35.7227V2.80273L112.613 2.11914V14.6777H122.77V2.80273L131.412 2.04102V35L122.77 35.7227ZM141.021 36.084L135.338 30.8008L140.738 25.2441L146.422 30.6445L141.021 36.084Z" fill="white"/>
<g filter="url(#filter0_f_74_718)">
<path d="M10.9629 40L28.5996 74.5996L46.2754 40L38.0039 38.2031L34.4785 45.5566H22.3594L19.2441 38.1152L10.9629 40ZM31.6367 52.3633L28.3555 59.5996L25.1621 52.3633H31.6367ZM58.8438 73.0371V47.7246H71.5195L69.4004 40H50.1621V72.1973L58.8438 73.0371ZM81.3633 65.4785L76.1191 69.5215L80.7188 74.2773L86.2852 70.3223L81.3633 65.4785ZM77.3594 63.7598L84.918 64.6777V40.1562L77.3594 39.5996V63.7598ZM122.77 39.2773V52.8809H112.613V40L104.01 39.2773V72.1973L112.613 72.8809V60.3223H122.77V72.1973L131.412 72.959V40L122.77 39.2773ZM141.021 38.916L135.338 44.1992L140.738 49.7559L146.422 44.3555L141.021 38.916Z" fill="white"/>
</g>
<defs>
<filter id="filter0_f_74_718" x="0.962891" y="28.1152" width="155.459" height="56.4844" filterUnits="userSpaceOnUse" color-interpolation-filters="sRGB">
<feFlood flood-opacity="0" result="BackgroundImageFix"/>
<feBlend mode="normal" in="SourceGraphic" in2="BackgroundImageFix" result="shape"/>
<feGaussianBlur stdDeviation="5" result="effect1_foregroundBlur_74_718"/>
</filter>
</defs>
</svg>
